<?xml version="1.0" ?><!DOCTYPE svg  PUBLIC '-//W3C//DTD SVG 1.1//EN'  'http://www.w3.org/Graphics/SVG/1.1/DTD/svg11.dtd'><svg enable-background="new 0 0 32 32" height="32px" version="1.1" viewBox="0 0 32 32" width="32px" xml:space="preserve" xmlns="http://www.w3.org/2000/svg" xmlns:xlink="http://www.w3.org/1999/xlink"><g id="face_x2C__smile_x2C__smiley_x2C__glasses"><g id="XMLID_66_"><path d="M16,30C8.847,30,2.864,24.646,2.084,17.546c-0.03-0.274,0.168-0.521,0.442-0.552    c0.275-0.028,0.521,0.168,0.552,0.442C3.803,24.029,9.357,29,16,29c6.638,0,12.192-4.968,12.92-11.555    c0.03-0.273,0.279-0.47,0.552-0.442c0.275,0.03,0.473,0.277,0.442,0.552C29.13,24.649,23.148,30,16,30z" fill="#263238"/><path d="M27.285,9.087c-0.163,0-0.322-0.079-0.418-0.226C24.451,5.191,20.389,3,16,3    C11.674,3,7.644,5.143,5.22,8.732C5.065,8.96,4.755,9.022,4.525,8.866C4.296,8.712,4.236,8.401,4.391,8.172    C7.002,4.308,11.342,2,16,2c4.726,0,9.101,2.359,11.702,6.313c0.152,0.23,0.088,0.54-0.143,0.692    C27.475,9.061,27.379,9.087,27.285,9.087z" fill="#263238"/><path d="M16,23c-0.52,0-1.043-0.028-1.554-0.084c-0.274-0.03-0.473-0.276-0.443-0.552    c0.03-0.274,0.27-0.474,0.551-0.442C15.029,21.974,15.516,22,16,22c3.176,0,5.376-1.095,6.663-2.013    c0.225-0.16,0.537-0.107,0.698,0.117c0.16,0.225,0.108,0.537-0.117,0.697C21.838,21.805,19.44,23,16,23z" fill="#263238"/><path d="M23.502,8.5c-0.042,0-0.083-0.005-0.125-0.016C23.358,8.479,21.48,8,20.001,8c-0.276,0-0.5-0.224-0.5-0.5    s0.224-0.5,0.5-0.5c1.607,0,3.543,0.495,3.625,0.516c0.267,0.069,0.428,0.342,0.359,0.609C23.927,8.351,23.724,8.5,23.502,8.5z" fill="#263238"/><path d="M8.5,8.5c-0.223,0-0.427-0.15-0.484-0.377c-0.068-0.268,0.094-0.54,0.361-0.607C8.46,7.494,10.424,7,12,7    c0.276,0,0.5,0.224,0.5,0.5S12.276,8,12,8c-1.449,0-3.358,0.479-3.377,0.484C8.582,8.495,8.541,8.5,8.5,8.5z" fill="#263238"/></g><path d="M11.162,18H6.189c-1.64,0-3.08-1.164-3.422-2.768l-0.733-3.425c-0.095-0.444,0.014-0.902,0.3-1.257   C2.62,10.197,3.045,10,3.5,10h11.263c0.145,0,0.283,0.061,0.378,0.171c0.095,0.109,0.138,0.255,0.117,0.397l-0.632,4.426   C14.382,16.708,12.893,18,11.162,18z M3.5,11c-0.152,0-0.293,0.062-0.389,0.18c-0.095,0.118-0.132,0.271-0.1,0.419l0.733,3.425   C3.99,16.169,5.018,17,6.189,17h4.972c1.236,0,2.3-0.923,2.475-2.146L14.187,11H3.5z" fill="#263238"/><path d="M25.811,18h-4.972c-1.731,0-3.22-1.292-3.465-3.006l-0.632-4.426c-0.021-0.143,0.022-0.288,0.117-0.397   C16.954,10.061,17.091,10,17.236,10H28.5c0.455,0,0.88,0.197,1.167,0.551c0.286,0.354,0.395,0.813,0.3,1.257l-0.733,3.425   C28.89,16.836,27.451,18,25.811,18z M17.813,10.998l0.551,3.855C18.538,16.077,19.602,17,20.838,17h4.972   c1.171,0,2.2-0.831,2.445-1.977l0.733-3.425c0.032-0.148-0.005-0.301-0.1-0.419c-0.096-0.118-0.237-0.186-0.389-0.186   L17.813,10.998z" fill="#263238"/><path d="M17.5,11h-3c-0.276,0-0.5-0.224-0.5-0.5s0.224-0.5,0.5-0.5h3c0.276,0,0.5,0.224,0.5,0.5S17.776,11,17.5,11z   " fill="#263238"/></g></svg>