<?xml version="1.0" ?><svg viewBox="0 0 64 64" xmlns="http://www.w3.org/2000/svg"><title/><g data-name="2" id="_2"><path d="M59,32.24A.93.93,0,0,0,59,32,27,27,0,0,0,46.8,9.44a1,1,0,0,0-.62-.4A26.91,26.91,0,0,0,17.82,9a1,1,0,0,0-.62.4A27,27,0,0,0,5,32a.93.93,0,0,0,0,.24,3.27,3.27,0,0,0-2,3v2.46A3.28,3.28,0,0,0,6.27,41H57.73A3.28,3.28,0,0,0,61,37.73V35.27A3.27,3.27,0,0,0,59,32.24ZM57,32H46.26a1,1,0,0,0,0-.34l-4.35-12a1,1,0,0,0-.94-.66H36V7.32a25,25,0,0,1,9,3.33V18a1,1,0,0,0,2,0V12A25,25,0,0,1,57,32ZM34,7.09V20a1,1,0,0,0,1,1h5.22l4,11H19.79l4-11H29a1,1,0,0,0,1-1V7.09C30.66,7,31.33,7,32,7S33.34,7,34,7.09ZM17,12v6a1,1,0,0,0,2,0V10.65a25,25,0,0,1,9-3.33V19H23.08a1,1,0,0,0-.94.66l-4.35,12a1,1,0,0,0-.05.34H7A25,25,0,0,1,17,12ZM59,37.73A1.27,1.27,0,0,1,57.73,39H6.27A1.27,1.27,0,0,1,5,37.73V35.27A1.27,1.27,0,0,1,6.27,34H57.73A1.27,1.27,0,0,1,59,35.27Z"/><path d="M58,45a1,1,0,0,0-1,1V44a1,1,0,0,0-1-1H8a1,1,0,0,0-1,1v2a1,1,0,0,0-2,0v7a1,1,0,0,0,2,0v2a1,1,0,0,0,.85,1l19.38,3h.15a1,1,0,0,0,.8-.39l3.82-5,3.82,5a1,1,0,0,0,.8.39h.15l19.38-3A1,1,0,0,0,57,55V53a1,1,0,0,0,2,0V46A1,1,0,0,0,58,45ZM27,56.92,9,54.14V45H31v6.66ZM55,54.14l-18,2.78-4-5.26V45H55Z"/><path d="M39,55a1,1,0,0,0,.47-.12l13-7a1,1,0,1,0-.94-1.76l-13,7A1,1,0,0,0,39,55Z"/><path d="M25.88,46.52a1,1,0,0,0-1.36-.4l-11,6A1,1,0,0,0,14,54a1,1,0,0,0,.48-.12l11-6A1,1,0,0,0,25.88,46.52Z"/><path d="M40.14,50.49a.87.87,0,0,0,.44-.11l6-3A1,1,0,0,0,47,46a1,1,0,0,0-1.34-.45l-6,3a1,1,0,0,0,.45,1.9Z"/><path d="M26.62,49.63l-5,3a1,1,0,0,0,.52,1.86,1.06,1.06,0,0,0,.51-.14l5-3a1,1,0,0,0-1-1.72Z"/></g></svg>