<?xml version="1.0" ?><!DOCTYPE svg  PUBLIC '-//W3C//DTD SVG 1.1//EN'  'http://www.w3.org/Graphics/SVG/1.1/DTD/svg11.dtd'><svg enable-background="new 0 0 120 120" height="120px" id="Layer_1" version="1.1" viewBox="0 0 120 120" width="120px" xml:space="preserve" xmlns="http://www.w3.org/2000/svg" xmlns:xlink="http://www.w3.org/1999/xlink"><g><path d="M96.102,36.156c0-6.524-5.308-11.833-11.833-11.833c-4.486,0-8.459,2.471-10.471,6.323   c-4.133-1.739-8.68-2.709-13.43-2.709c-5.016,0-9.774,1.061-14.052,2.948c-1.969-3.951-6.039-6.561-10.586-6.561   c-6.524,0-11.833,5.308-11.833,11.833c0,4.342,2.349,8.237,6.021,10.303c-2.011,4.105-3.141,8.678-3.141,13.499   c0,17.656,15.068,32.021,33.59,32.021c15.878,0,29.716-10.746,32.903-25.55c0.232-1.08-0.454-2.144-1.534-2.376   c-1.083-0.236-2.144,0.454-2.376,1.534c-1.235,5.737-4.313,10.774-8.568,14.613C78.792,71.6,70.158,65.167,60,65.167   c-9.947,0-18.424,6.159-20.657,14.484c-5.291-5.065-8.564-12.023-8.564-19.693c0-15.451,13.274-28.021,29.59-28.021   c15.326,0,28.282,11.318,29.496,25.767c0.093,1.101,1.058,1.915,2.161,1.826c1.101-0.093,1.918-1.06,1.826-2.161   c-0.336-4.003-1.462-7.793-3.214-11.243C94.011,43.982,96.102,40.269,96.102,36.156z M60,69.167   c9.033,0,16.589,6.062,17.208,13.801c-4.825,3.169-10.654,5.011-16.84,5.011c-6.55,0-12.608-2.029-17.516-5.455   C43.721,74.999,51.137,69.167,60,69.167z M31.909,42.979c-2.442-1.364-4.011-3.94-4.011-6.823c0-4.319,3.514-7.833,7.833-7.833   c3.025,0,5.725,1.749,7.021,4.386C38.365,35.296,34.651,38.817,31.909,42.979z M77.401,32.417c1.347-2.492,3.937-4.093,6.869-4.093   c4.319,0,7.833,3.514,7.833,7.833c0,2.675-1.346,5.084-3.511,6.514C85.742,38.48,81.9,34.963,77.401,32.417z"/><path d="M48.109,54.5c-1.104,0-2,0.896-2,2s0.896,2,2,2c3.354,0,6.083-2.729,6.083-6.083s-2.729-6.083-6.083-6.083   s-6.083,2.729-6.083,6.083c0,1.104,0.896,2,2,2s2-0.896,2-2c0-1.148,0.935-2.083,2.083-2.083s2.083,0.935,2.083,2.083   S49.257,54.5,48.109,54.5z"/><path d="M71.891,54.5c-1.104,0-2,0.896-2,2s0.896,2,2,2c3.354,0,6.083-2.729,6.083-6.083s-2.729-6.083-6.083-6.083   s-6.083,2.729-6.083,6.083c0,1.104,0.896,2,2,2s2-0.896,2-2c0-1.148,0.935-2.083,2.083-2.083s2.083,0.935,2.083,2.083   S73.04,54.5,71.891,54.5z"/><path d="M65.75,76.916c0-1.104-0.896-2-2-2h-7.5c-1.104,0-2,0.896-2,2s0.896,2,2,2h7.5C64.854,78.916,65.75,78.02,65.75,76.916z"/><path d="M63.5,82.041c0-1.104-0.896-2-2-2h-3c-1.104,0-2,0.896-2,2s0.896,2,2,2h3C62.604,84.041,63.5,83.146,63.5,82.041z"/></g></svg>