<?xml version="1.0" ?><svg data-name="Layer 1" id="Layer_1" viewBox="0 0 64 64" xmlns="http://www.w3.org/2000/svg"><defs><style>.cls-1{fill:#190933;}</style></defs><title/><path class="cls-1" d="M32,6.5A1.5,1.5,0,1,0,30.5,5,1.5,1.5,0,0,0,32,6.5Zm0-2a.5.5,0,1,1-.5.5A.5.5,0,0,1,32,4.5Z"/><circle class="cls-1" cx="36" cy="5" r="1"/><circle class="cls-1" cx="28" cy="5" r="1"/><path class="cls-1" d="M44,0H20a5,5,0,0,0-5,5V9a1,1,0,0,0-1,1v4a1,1,0,0,0,1,1v2a1,1,0,0,0-1,1v4a1,1,0,0,0,1,1V59a5,5,0,0,0,5,5H44a5,5,0,0,0,5-5V5A5,5,0,0,0,44,0ZM20,2H44a3,3,0,0,1,3,2.5H44a4.34,4.34,0,0,0-3.35,1.65A3.45,3.45,0,0,1,38,7.5H26a3.45,3.45,0,0,1-2.65-1.35A4.34,4.34,0,0,0,20,4.5H17.05A3,3,0,0,1,20,2ZM44,62H20a3,3,0,0,1-3-3V5.5h3a3.45,3.45,0,0,1,2.65,1.35A4.34,4.34,0,0,0,26,8.5H38a4.34,4.34,0,0,0,3.35-1.65A3.45,3.45,0,0,1,44,5.5h3V59A3,3,0,0,1,44,62Z"/><circle class="cls-1" cx="32" cy="36" r="1"/><path class="cls-1" d="M32,22a14.93,14.93,0,0,0-8.32,2.52,1,1,0,0,0-.28,1.39,1,1,0,0,0,1.39.27,13,13,0,0,1,14.42,0,.94.94,0,0,0,.55.17,1,1,0,0,0,.56-1.83A14.93,14.93,0,0,0,32,22Z"/><path class="cls-1" d="M27,29.51a9.13,9.13,0,0,1,10,0,.94.94,0,0,0,.55.17,1,1,0,0,0,.84-.44,1,1,0,0,0-.28-1.39,11,11,0,0,0-12.2,0A1,1,0,1,0,27,29.51Z"/><path class="cls-1" d="M36.16,32.56a1,1,0,0,0-.28-1.38,7.09,7.09,0,0,0-7.76,0,1,1,0,0,0-.28,1.38,1,1,0,0,0,1.39.28,5.06,5.06,0,0,1,5.54,0,1,1,0,0,0,.56.17A1,1,0,0,0,36.16,32.56Z"/><path class="cls-1" d="M30.16,43.53a.49.49,0,0,0-.63.31L28,48.42l-1.53-4.58a.51.51,0,0,0-.94,0L24,48.42l-1.53-4.58a.5.5,0,1,0-.94.32l2,6a.51.51,0,0,0,.94,0L26,45.58l1.53,4.58a.49.49,0,0,0,.94,0l2-6A.49.49,0,0,0,30.16,43.53Z"/><path class="cls-1" d="M33,43.5a.5.5,0,0,0-.5.5v6a.5.5,0,0,0,1,0V44A.5.5,0,0,0,33,43.5Z"/><path class="cls-1" d="M42,43.5a.5.5,0,0,0-.5.5v6a.5.5,0,0,0,1,0V44A.5.5,0,0,0,42,43.5Z"/><path class="cls-1" d="M37,44.5h2a.5.5,0,0,0,0-1H37A1.5,1.5,0,0,0,35.5,45v5a.5.5,0,0,0,1,0V47.5H39a.5.5,0,0,0,0-1H36.5V45A.5.5,0,0,1,37,44.5Z"/></svg>