<?xml version="1.0" ?><svg id="Layer_1" style="enable-background:new 0 0 256 256;" version="1.1" viewBox="0 0 256 256" xml:space="preserve" xmlns="http://www.w3.org/2000/svg" xmlns:xlink="http://www.w3.org/1999/xlink"><style type="text/css">
	.st0{fill:none;stroke:#000000;stroke-width:8;stroke-linejoin:round;stroke-miterlimit:10;}
	.st1{fill:none;stroke:#000000;stroke-width:8;stroke-miterlimit:10;}
	.st2{fill:none;stroke:#000000;stroke-width:8;stroke-miterlimit:10;stroke-dasharray:16,16;}
	.st3{fill:none;stroke:#000000;stroke-width:8;stroke-linecap:round;stroke-linejoin:round;stroke-miterlimit:10;}
</style><g><path class="st0" d="M229.558,188.61c-33.442,7.767-87.533,2.643-148.558-6.809c-20.53,7.452-40.265,9.783-58.905,5.053   C13.802,184.749,8,177.27,8,168.714l0-75.346c0-3.255,3.351-5.464,6.321-4.134c13.814,6.18,27.719,3.932,41.679-3.432l0.699-11.535   c0.531-8.755,10.378-13.615,17.649-8.711l38.463,25.94c21.205,14.301,45.268,23.816,70.519,27.885l29.715,4.788   C233.19,127.414,248,144.802,248,165.206v0C248,176.333,240.396,186.093,229.558,188.61z"/><line class="st0" x1="108.943" x2="83.471" y1="88.886" y2="114.357"/><line class="st0" x1="123.943" x2="102.028" y1="98.886" y2="120.801"/><line class="st0" x1="138.943" x2="119.828" y1="108.886" y2="128"/><path class="st0" d="M11.924,88.886c6.14,47.677,26.148,81.634,69.076,92.915"/><line class="st0" x1="15.878" x2="49.5" y1="183.978" y2="133.217"/></g></svg>